<?xml version="1.0" encoding="UTF-8" standalone="no"?>
<svg width="192px" height="192px" viewBox="0 0 192 192" version="1.1" xmlns="http://www.w3.org/2000/svg" xmlns:xlink="http://www.w3.org/1999/xlink">
    <!-- Generator: Sketch 3.8.2 (29753) - http://www.bohemiancoding.com/sketch -->
    <title>Oval 7</title>
    <desc>Created with Sketch.</desc>
    <defs></defs>
    <g id="Page-1" stroke="none" stroke-width="1" fill="none" fill-rule="evenodd">
        <g id="iPhone-6" transform="translate(-224.000000, -310.000000)" fill="#171717">
            <g id="FeaturedSection" transform="translate(0.000000, 159.179676)">
                <g id="FeaturedVideo" transform="translate(0.000000, 0.000000)">
                    <path d="M320,341.984604 C372.612673,341.984604 415.263672,299.333606 415.263672,246.720932 C415.263672,194.108259 372.612673,151.457261 320,151.457261 C267.387327,151.457261 224.736328,194.108259 224.736328,246.720932 C224.736328,299.333606 267.387327,341.984604 320,341.984604 Z M304.692804,285.864104 C303.825729,286.556243 303.122825,286.223847 303.122825,285.12028 L303.122825,208.324966 C303.122825,207.222024 303.818927,206.883573 304.692804,207.581142 L352.157208,245.469394 C353.024284,246.161533 353.031086,247.278282 352.157208,247.975851 L304.692804,285.864104 Z" id="Oval-7"></path>
                </g>
            </g>
        </g>
    </g>
</svg>